<svg id="Hide_visibility" data-name="Hide visibility" xmlns="http://www.w3.org/2000/svg" width="13.361" height="10.02" viewBox="0 0 13.361 10.02">
  <g id="Group_4" data-name="Group 4" transform="translate(5.025 3.354)">
    <g id="Group_3" data-name="Group 3" transform="translate(0 0)">
      <path id="Path_23" data-name="Path 23" d="M195.78,192.623a.278.278,0,0,0-.394.394,1.67,1.67,0,1,1-2.361,2.361.278.278,0,0,0-.394.394,2.226,2.226,0,1,0,3.149-3.149Z" transform="translate(-192.55 -192.542)" fill="#612690"/>
    </g>
  </g>
  <g id="Group_6" data-name="Group 6" transform="translate(4.454 2.783)">
    <g id="Group_5" data-name="Group 5" transform="translate(0 0)">
      <path id="Path_24" data-name="Path 24" d="M173.283,170.7a2.2,2.2,0,0,0-2.615,2.188,2.181,2.181,0,0,0,.039.388.279.279,0,0,0,.273.23.249.249,0,0,0,.049,0,.279.279,0,0,0,.225-.322,1.61,1.61,0,0,1-.03-.291,1.65,1.65,0,0,1,1.961-1.641.278.278,0,1,0,.1-.548Z" transform="translate(-170.668 -170.659)" fill="#612690"/>
    </g>
  </g>
  <g id="Group_8" data-name="Group 8" transform="translate(3.482 1.891)">
    <g id="Group_7" data-name="Group 7" transform="translate(0 0)">
      <path id="Path_25" data-name="Path 25" d="M143.248,139.4a13.522,13.522,0,0,0-3.646-2.908.278.278,0,0,0-.256.495,13.081,13.081,0,0,1,3.315,2.593c-.664.719-3.275,3.34-6.028,3.34a6.418,6.418,0,0,1-2.8-.671.278.278,0,0,0-.242.5,6.96,6.96,0,0,0,3.041.726c3.43,0,6.486-3.565,6.615-3.717A.278.278,0,0,0,143.248,139.4Z" transform="translate(-133.435 -136.461)" fill="#612690"/>
    </g>
  </g>
  <g id="Group_10" data-name="Group 10" transform="translate(0 1.113)">
    <g id="Group_9" data-name="Group 9" transform="translate(0 0)">
      <path id="Path_26" data-name="Path 26" d="M8.506,106.98a5.748,5.748,0,0,0-1.827-.321c-3.43,0-6.486,3.565-6.615,3.717a.278.278,0,0,0-.016.339A10.334,10.334,0,0,0,2.6,113.136a.276.276,0,0,0,.385-.078.278.278,0,0,0-.078-.385,10.18,10.18,0,0,1-2.273-2.1c.641-.7,3.269-3.355,6.042-3.355a5.21,5.21,0,0,1,1.649.291.275.275,0,0,0,.352-.175A.278.278,0,0,0,8.506,106.98Z" transform="translate(0 -106.659)" fill="#612690"/>
    </g>
  </g>
  <g id="Group_12" data-name="Group 12" transform="translate(1.67 0)">
    <g id="Group_11" data-name="Group 11" transform="translate(0 0)">
      <path id="Path_27" data-name="Path 27" d="M73.935,64.089a.278.278,0,0,0-.394,0l-9.464,9.464a.278.278,0,0,0,.394.394l9.464-9.464A.279.279,0,0,0,73.935,64.089Z" transform="translate(-63.996 -64.008)" fill="#612690"/>
    </g>
  </g>
</svg>
