<svg xmlns="http://www.w3.org/2000/svg" width="10.817" height="13.769" viewBox="0 0 10.817 13.769">
  <path id="intersex" d="M7.869.246A.237.237,0,0,1,8.115,0h2.213a.473.473,0,0,1,.346.146.473.473,0,0,1,.146.346V2.7a.237.237,0,0,1-.246.246h-.492A.237.237,0,0,1,9.836,2.7V1.675L7.885,3.634a4.305,4.305,0,0,1,.968,2.758A4.267,4.267,0,0,1,7.719,9.347a4.293,4.293,0,0,1-2.8,1.441V11.8h.738a.237.237,0,0,1,.246.246v.492a.237.237,0,0,1-.246.246H4.919v.738a.237.237,0,0,1-.246.246H4.181a.237.237,0,0,1-.246-.246v-.738H3.2a.237.237,0,0,1-.246-.246v-.492A.237.237,0,0,1,3.2,11.8h.738V10.787A4.3,4.3,0,0,1,1.857,10,4.405,4.405,0,0,1,.424,8.279a4.346,4.346,0,0,1-.407-2.24A4.292,4.292,0,0,1,1.246,3.323,4.266,4.266,0,0,1,3.912,2a4.278,4.278,0,0,1,1.752.146,4.5,4.5,0,0,1,1.521.791L9.145.983H8.115A.237.237,0,0,1,7.869.737V.246ZM4.427,9.835a3.314,3.314,0,0,0,2.432-1.01,3.317,3.317,0,0,0,1.01-2.432,3.314,3.314,0,0,0-1.01-2.432A3.315,3.315,0,0,0,4.427,2.95,3.314,3.314,0,0,0,2,3.961,3.317,3.317,0,0,0,.985,6.392,3.313,3.313,0,0,0,2,8.824,3.316,3.316,0,0,0,4.427,9.835Z" transform="translate(-0.003)" fill="#fff"/>
</svg>
