<?xml version="1.0" ?><svg id="Layer_1" style="enable-background:new 0 0 70 70;" version="1.1" viewBox="0 0 70 70" xml:space="preserve" xmlns="http://www.w3.org/2000/svg" xmlns:xlink="http://www.w3.org/1999/xlink"><g><g><g><g><path d="M63,18.59H7c-2.21,0-4,1.79-4,4v36.84c0,2.21,1.79,4,4,4h56c2.21,0,4-1.79,4-4V22.59C67,20.39,65.21,18.59,63,18.59z       M13.12,59.27h-3V22.76h3V59.27z M35,56.06c-8.3,0-15.04-6.74-15.04-15.04c0-8.3,6.74-15.04,15.04-15.04      c8.3,0,15.04,6.74,15.04,15.04C50.04,49.32,43.3,56.06,35,56.06z M59.88,59.27h-3V22.76h3V59.27z"/><path d="M19.51,14.3v2.3h-7.24v-2.3c0-0.67,0.55-1.22,1.22-1.22h4.8C18.96,13.08,19.51,13.62,19.51,14.3z"/><path d="M57.73,14.3v2.3h-7.24v-2.3c0-0.67,0.55-1.22,1.22-1.22h4.8C57.19,13.08,57.73,13.62,57.73,14.3z"/></g></g><path d="M27.62,16.59v-5.53c0-0.28,0.22-0.5,0.5-0.5h13.77c0.28,0,0.5,0.22,0.5,0.5v5.53h4v-5.53c0-2.48-2.02-4.5-4.5-4.5H28.12    c-2.48,0-4.5,2.02-4.5,4.5v5.53H27.62z"/></g><path d="M42.99,42.64l-8,7.99l-7.98-7.99c-0.13-0.12-0.24-0.25-0.35-0.38h3.79c0.37,0,0.71-0.2,0.88-0.53l1.01-1.91l1.15,3.66   c0.12,0.39,0.47,0.67,0.88,0.7h0.07c0.38,0,0.73-0.22,0.9-0.56l0.78-1.6h3.6c0.55,0,1-0.45,1-1s-0.45-1-1-1h-4.23   c-0.35,0-0.66,0.18-0.85,0.47l-1.11-3.55c-0.12-0.38-0.46-0.66-0.86-0.7c-0.41-0.03-0.78,0.18-0.97,0.53l-1.85,3.49h-4.26   c-0.58-1.92-0.11-4.1,1.42-5.62c2.2-2.2,5.78-2.2,7.98,0c2.22-2.2,5.79-2.2,8,0C45.21,36.84,45.21,40.43,42.99,42.64z"/></g></svg>