<svg xmlns="http://www.w3.org/2000/svg" width="10.389" height="17.737" viewBox="0 0 10.389 17.737">
  <g id="mobile-phone" transform="translate(-16.5 -2)">
    <path id="Path_18" data-name="Path 18" d="M25.875,19.737H17.514A1.014,1.014,0,0,1,16.5,18.724V3.014A1.014,1.014,0,0,1,17.514,2h8.362a1.014,1.014,0,0,1,1.014,1.014v15.71A1.014,1.014,0,0,1,25.875,19.737ZM17.514,2.507a.507.507,0,0,0-.507.507v15.71a.507.507,0,0,0,.507.507h8.362a.507.507,0,0,0,.507-.507V3.014a.507.507,0,0,0-.507-.507Z" fill="#fff"/>
    <path id="Path_19" data-name="Path 19" d="M26.636,11.507H16.753a.253.253,0,1,1,0-.507h9.882a.253.253,0,0,1,0,.507Z" transform="translate(0 -6.72)" fill="#fff"/>
    <path id="Path_20" data-name="Path 20" d="M26.636,57.507H16.753a.253.253,0,1,1,0-.507h9.882a.253.253,0,0,1,0,.507Z" transform="translate(0 -41.064)" fill="#fff"/>
    <path id="Path_21" data-name="Path 21" d="M34.246,62.681a.934.934,0,1,1,.934-.934.934.934,0,0,1-.934.934Zm0-1.362a.428.428,0,1,0,.428.427A.428.428,0,0,0,34.246,61.319Z" transform="translate(-12.552 -43.91)" fill="#fff"/>
    <path id="Path_22" data-name="Path 22" d="M34.28,7.257H32.253a.253.253,0,1,1,0-.507H34.28a.253.253,0,1,1,0,.507Z" transform="translate(-11.572 -3.546)" fill="#fff"/>
  </g>
</svg>
