<svg xmlns="http://www.w3.org/2000/svg" width="10.176" height="13.568" viewBox="0 0 10.176 13.568">
  <g id="padlock" transform="translate(-3)">
    <path id="Path_13" data-name="Path 13" d="M11.9,17.48H4.272A1.274,1.274,0,0,1,3,16.208V10.272A1.274,1.274,0,0,1,4.272,9H11.9a1.274,1.274,0,0,1,1.272,1.272v5.936A1.274,1.274,0,0,1,11.9,17.48ZM4.272,9.848a.425.425,0,0,0-.424.424v5.936a.425.425,0,0,0,.424.424H11.9a.425.425,0,0,0,.424-.424V10.272a.425.425,0,0,0-.424-.424Z" transform="translate(0 -3.912)" fill="#fff"/>
    <path id="Path_14" data-name="Path 14" d="M12.36,5.936a.424.424,0,0,1-.424-.424V3.392a2.544,2.544,0,0,0-5.088,0v2.12a.424.424,0,1,1-.848,0V3.392a3.392,3.392,0,1,1,6.784,0v2.12A.424.424,0,0,1,12.36,5.936Z" transform="translate(-1.304)" fill="#fff"/>
    <path id="Path_15" data-name="Path 15" d="M11.131,15.261a1.131,1.131,0,1,1,1.131-1.131A1.132,1.132,0,0,1,11.131,15.261Zm0-1.413a.283.283,0,1,0,.283.283A.283.283,0,0,0,11.131,13.848Z" transform="translate(-3.043 -5.651)" fill="#fff"/>
    <path id="Path_16" data-name="Path 16" d="M11.674,18.153a.424.424,0,0,1-.424-.424V16.174a.424.424,0,0,1,.848,0v1.555A.424.424,0,0,1,11.674,18.153Z" transform="translate(-3.586 -6.846)" fill="#fff"/>
  </g>
</svg>
