<svg xmlns="http://www.w3.org/2000/svg" width="10.176" height="13.552" viewBox="0 0 10.176 13.552">
  <g id="Street" transform="translate(-0.005 0.001)">
    <path id="Path_845" data-name="Path 845" d="M5.242,12.887a9.235,9.235,0,0,0,1.866-1.576,9.556,9.556,0,0,0,2.3-4.434,5.824,5.824,0,0,0-.535-4.2,4.1,4.1,0,0,0-.748-.911A4.2,4.2,0,0,0,5.313.61,4.8,4.8,0,0,0,2.3,1.729a4.356,4.356,0,0,0-.973,1.079A5.145,5.145,0,0,0,.7,6.43a8.839,8.839,0,0,0,1.879,4.038,11.423,11.423,0,0,0,2.667,2.416l0,0ZM5.092,2.333A2.82,2.82,0,1,1,3.1,3.159a2.8,2.8,0,0,1,1.992-.826ZM6.678,3.565a2.239,2.239,0,1,0,.658,1.586,2.243,2.243,0,0,0-.658-1.586Zm.883,8.155A9.82,9.82,0,0,1,5.42,13.491a.3.3,0,0,1-.345.012A12.113,12.113,0,0,1,2.1,10.846a9.45,9.45,0,0,1-2-4.322A5.751,5.751,0,0,1,.814,2.479,4.966,4.966,0,0,1,1.924,1.25,5.411,5.411,0,0,1,5.317,0,4.787,4.787,0,0,1,8.54,1.315,4.675,4.675,0,0,1,9.4,2.361a6.417,6.417,0,0,1,.613,4.633,10.192,10.192,0,0,1-2.446,4.72l0,.006Z" transform="translate(0 0)" fill="#fff"/>
  </g>
</svg>
