<svg xmlns="http://www.w3.org/2000/svg" width="11.336" height="13.587" viewBox="0 0 11.336 13.587">
  <g id="user" transform="translate(0 0)">
    <path id="Path_11" data-name="Path 11" d="M90.3,6.545a3.167,3.167,0,0,0,2.314-.959,3.167,3.167,0,0,0,.959-2.314A3.167,3.167,0,0,0,92.618.959a3.272,3.272,0,0,0-4.628,0,3.167,3.167,0,0,0-.959,2.314,3.167,3.167,0,0,0,.959,2.314A3.168,3.168,0,0,0,90.3,6.545ZM88.554,1.522a2.475,2.475,0,0,1,3.5,0,2.366,2.366,0,0,1,.726,1.751,2.366,2.366,0,0,1-.726,1.751,2.475,2.475,0,0,1-3.5,0,2.365,2.365,0,0,1-.726-1.751,2.366,2.366,0,0,1,.726-1.751Zm0,0" transform="translate(-84.722 0)" fill="#fff"/>
    <path id="Path_12" data-name="Path 12" d="M11.308,251.2a8.084,8.084,0,0,0-.11-.859,6.762,6.762,0,0,0-.211-.863,4.264,4.264,0,0,0-.355-.805,3.035,3.035,0,0,0-.535-.7,2.36,2.36,0,0,0-.769-.483,2.657,2.657,0,0,0-.981-.178,1,1,0,0,0-.532.226c-.159.1-.346.224-.554.357a3.175,3.175,0,0,1-.717.316,2.784,2.784,0,0,1-1.754,0,3.164,3.164,0,0,1-.716-.316c-.206-.132-.393-.252-.555-.357a1,1,0,0,0-.532-.226,2.653,2.653,0,0,0-.981.178,2.357,2.357,0,0,0-.769.483,3.036,3.036,0,0,0-.535.7,4.271,4.271,0,0,0-.355.805,6.78,6.78,0,0,0-.211.863,8.029,8.029,0,0,0-.11.859c-.018.259-.027.53-.027.8a2.256,2.256,0,0,0,.67,1.707,2.412,2.412,0,0,0,1.727.63H8.939a2.412,2.412,0,0,0,1.727-.63,2.255,2.255,0,0,0,.67-1.707c0-.274-.009-.544-.027-.8Zm-1.192,1.933a1.624,1.624,0,0,1-1.178.41H2.4a1.624,1.624,0,0,1-1.178-.41A1.473,1.473,0,0,1,.8,252c0-.255.008-.506.025-.747a7.241,7.241,0,0,1,.1-.773,5.98,5.98,0,0,1,.186-.761,3.477,3.477,0,0,1,.289-.655,2.25,2.25,0,0,1,.393-.515,1.565,1.565,0,0,1,.511-.318,1.832,1.832,0,0,1,.627-.121c.028.015.078.043.158.1.164.107.352.228.561.362a3.944,3.944,0,0,0,.9.4,3.579,3.579,0,0,0,2.244,0,3.949,3.949,0,0,0,.9-.4c.213-.136.4-.255.56-.361.08-.052.13-.081.158-.1a1.833,1.833,0,0,1,.627.121,1.567,1.567,0,0,1,.511.318,2.243,2.243,0,0,1,.393.515,3.466,3.466,0,0,1,.289.654,5.968,5.968,0,0,1,.186.761,7.3,7.3,0,0,1,.1.773h0c.017.24.025.492.026.747a1.473,1.473,0,0,1-.423,1.13Zm0,0" transform="translate(0 -240.753)" fill="#fff"/>
  </g>
</svg>
