<svg xmlns="http://www.w3.org/2000/svg" width="12" height="8.8" viewBox="0 0 12 8.8">
  <g id="view" transform="translate(-1.126 -5.625)">
    <path id="Path_846" data-name="Path 846" d="M13.1,9.889A6.676,6.676,0,0,0,7.126,5.625,6.676,6.676,0,0,0,1.15,9.889a.4.4,0,0,0,0,.272,6.676,6.676,0,0,0,5.976,4.264A6.676,6.676,0,0,0,13.1,10.161a.4.4,0,0,0,0-.272ZM7.126,13.625a5.94,5.94,0,0,1-5.172-3.6,5.939,5.939,0,0,1,5.172-3.6,5.939,5.939,0,0,1,5.172,3.6A5.94,5.94,0,0,1,7.126,13.625Z" fill="#a185b8"/>
    <path id="Path_847" data-name="Path 847" d="M13.736,11.25a2.411,2.411,0,0,0-2.486,2.328,2.411,2.411,0,0,0,2.486,2.328,2.411,2.411,0,0,0,2.486-2.328A2.411,2.411,0,0,0,13.736,11.25Zm0,3.88a1.556,1.556,0,1,1,1.657-1.552A1.607,1.607,0,0,1,13.736,15.13Z" transform="translate(-6.61 -3.553)" fill="#a185b8"/>
  </g>
</svg>
